<svg width="50" height="36" viewBox="0 0 50 36" fill="none" xmlns="http://www.w3.org/2000/svg">
<g clip-path="url(#clip0_411_40)">
<path d="M41.3388 16.8425L24.9752 0.479277C24.3363 -0.159777 23.3001 -0.159777 22.661 0.479386C22.0221 1.11844 22.0221 2.15448 22.6612 2.79353L37.8677 17.9997L22.661 33.2067C22.0221 33.8457 22.0221 34.8817 22.6612 35.5208C22.9806 35.8403 23.3994 36 23.8182 36C24.237 36 24.6558 35.8403 24.9753 35.5207L41.3388 19.1566C41.6458 18.8498 41.8182 18.4336 41.8182 17.9996C41.8182 17.5656 41.6458 17.1494 41.3388 16.8425Z" fill="#FF0D70"/>
</g>
<g clip-path="url(#clip1_411_40)">
<path d="M27.3388 16.8425L10.9752 0.479277C10.3363 -0.159777 9.3001 -0.159777 8.66105 0.479386C8.0221 1.11844 8.0221 2.15448 8.66116 2.79353L23.8677 17.9997L8.66105 33.2067C8.0221 33.8457 8.0221 34.8817 8.66116 35.5208C8.98058 35.8403 9.39938 36 9.81818 36C10.237 36 10.6558 35.8403 10.9753 35.5207L27.3388 19.1566C27.6458 18.8498 27.8182 18.4336 27.8182 17.9996C27.8182 17.5656 27.6458 17.1494 27.3388 16.8425Z" fill="#FF0D70"/>
</g>
<defs>
<clipPath id="clip0_411_40">
<rect width="36" height="36" fill="white" transform="translate(14)"/>
</clipPath>
<clipPath id="clip1_411_40">
<rect width="36" height="36" fill="white"/>
</clipPath>
</defs>
</svg>
