<svg width="32" height="27" viewBox="0 0 32 27" fill="none" xmlns="http://www.w3.org/2000/svg">
<path d="M30.295 0.936511C29.941 0.68876 29.5415 0.513194 29.1196 0.419842C28.6976 0.326489 28.2614 0.31718 27.8359 0.392446C27.4103 0.467712 27.0038 0.626078 26.6395 0.858498C26.2751 1.09092 25.9602 1.39284 25.7125 1.74701L13.2025 19.613L5.00004 14.01C4.34217 13.56 3.53248 13.3898 2.74909 13.5367C1.96571 13.6837 1.27279 14.1359 0.822788 14.7938C0.372782 15.4516 0.202545 16.2613 0.349526 17.0447C0.496508 17.8281 0.948669 18.521 1.60654 18.971L12.6015 26.481C12.9402 26.7122 13.3229 26.8709 13.7257 26.9474C14.1285 27.0239 14.5427 27.0165 14.9425 26.9255C15.369 26.851 15.7765 26.693 16.1417 26.4607C16.507 26.2283 16.8228 25.9262 17.071 25.5715L31.106 5.52151C31.6062 4.80557 31.8017 3.92032 31.6496 3.0603C31.4974 2.20028 31.01 1.43586 30.2945 0.935011" fill="#405866"/>
</svg>
