<svg width="27" height="15" viewBox="0 0 27 15" fill="none" xmlns="http://www.w3.org/2000/svg">
<path d="M25.0579 0.316325L13.5 11.5828L1.94213 0.316325C1.73563 0.114623 1.45842 0.00170198 1.16976 0.00170198C0.881095 0.00170198 0.603884 0.114623 0.397383 0.316325C0.297396 0.414292 0.217962 0.531225 0.163734 0.660277C0.109505 0.789329 0.0815735 0.927904 0.0815735 1.06789C0.0815735 1.20787 0.109505 1.34644 0.163734 1.4755C0.217962 1.60455 0.297396 1.72148 0.397383 1.81945L12.6929 13.8074C12.9089 14.0179 13.1985 14.1357 13.5 14.1357C13.8015 14.1357 14.0911 14.0179 14.3071 13.8074L26.6026 1.82176C26.7033 1.72372 26.7834 1.6065 26.838 1.47702C26.8927 1.34754 26.9208 1.20843 26.9208 1.06789C26.9208 0.927347 26.8927 0.788231 26.838 0.658752C26.7834 0.529272 26.7033 0.412052 26.6026 0.314011C26.3961 0.11231 26.1189 -0.000610352 25.8303 -0.000610352C25.5416 -0.000610352 25.2644 0.11231 25.0579 0.314011V0.316325Z" fill="black"/>
</svg>
