<svg width="41" height="41" viewBox="0 0 41 41" fill="none" xmlns="http://www.w3.org/2000/svg">
<path d="M32.4583 17.0833C34.3887 17.0833 36.1483 16.417 37.5833 15.3408V30.75C37.5833 32.6291 36.0458 34.1666 34.1666 34.1666H6.83329C4.95413 34.1666 3.41663 32.6291 3.41663 30.75V10.25C3.41663 8.37079 4.95413 6.83329 6.83329 6.83329H24.0875C23.985 7.37996 23.9166 7.96079 23.9166 8.54163C23.9166 11.07 25.027 13.3079 26.7695 14.8795L20.5 18.7916L9.05413 11.6337C8.89263 11.5219 8.71011 11.444 8.51763 11.4047C8.32515 11.3654 8.12671 11.3656 7.93431 11.4053C7.74191 11.445 7.55955 11.5232 7.39828 11.6354C7.23701 11.7476 7.10018 11.8913 6.99607 12.0579C6.89195 12.2245 6.82272 12.4105 6.79256 12.6046C6.7624 12.7987 6.77194 12.9969 6.82061 13.1872C6.86927 13.3775 6.95605 13.556 7.07569 13.7118C7.19532 13.8676 7.34533 13.9975 7.51663 14.0937L19.5945 21.6445C20.1412 21.9862 20.8587 21.9862 21.4054 21.6445L29.5541 16.5537C30.4766 16.8783 31.4333 17.0833 32.4583 17.0833ZM27.3333 8.54163C27.3333 11.3775 29.6225 13.6666 32.4583 13.6666C35.2941 13.6666 37.5833 11.3775 37.5833 8.54163C37.5833 5.70579 35.2941 3.41663 32.4583 3.41663C29.6225 3.41663 27.3333 5.70579 27.3333 8.54163Z" fill="#8D8D8D"/>
</svg>
