<svg width="30" height="17" viewBox="0 0 30 17" fill="none" xmlns="http://www.w3.org/2000/svg">
<path d="M27.4949 1.31501L14.9999 13.495L2.50495 1.31501C2.2817 1.09696 1.98201 0.974881 1.66995 0.974881C1.35788 0.974881 1.05819 1.09696 0.834946 1.31501C0.726852 1.42092 0.640977 1.54734 0.582352 1.68685C0.523727 1.82637 0.49353 1.97618 0.49353 2.12751C0.49353 2.27885 0.523727 2.42866 0.582352 2.56817C0.640977 2.70769 0.726852 2.8341 0.834946 2.94001L14.1274 15.9C14.3609 16.1275 14.674 16.2549 14.9999 16.2549C15.3259 16.2549 15.639 16.1275 15.8724 15.9L29.1649 2.94251C29.2738 2.83652 29.3603 2.7098 29.4194 2.56982C29.4785 2.42984 29.5089 2.27945 29.5089 2.12751C29.5089 1.97558 29.4785 1.82518 29.4194 1.68521C29.3603 1.54523 29.2738 1.4185 29.1649 1.31251C28.9417 1.09446 28.642 0.972382 28.3299 0.972382C28.0179 0.972382 27.7182 1.09446 27.4949 1.31251V1.31501Z" fill="#4D4D4D"/>
</svg>
