<svg width="343" height="593" viewBox="0 0 343 593" fill="none" xmlns="http://www.w3.org/2000/svg">
<circle cx="261.228" cy="526.733" r="11.6" transform="rotate(-127.672 261.228 526.733)" fill="#2A94F4"/>
<circle cx="232.871" cy="490.007" r="11.6" transform="rotate(-127.672 232.871 490.007)" fill="#2A94F4"/>
<circle cx="176.157" cy="416.553" r="11.6" transform="rotate(-127.672 176.157 416.553)" fill="#2A94F4"/>
<circle cx="299.266" cy="497.364" r="11.6" transform="rotate(-127.672 299.266 497.364)" fill="#2A94F4"/>
<circle cx="270.909" cy="460.637" r="11.6" transform="rotate(-127.672 270.909 460.637)" fill="#2A94F4"/>
<circle cx="242.552" cy="423.91" r="11.6" transform="rotate(-127.672 242.552 423.91)" fill="#2A94F4"/>
<circle cx="214.196" cy="387.183" r="11.6" transform="rotate(-127.672 214.196 387.183)" fill="#2A94F4"/>
<circle cx="252.234" cy="357.814" r="11.6" transform="rotate(-127.672 252.234 357.814)" fill="#2A94F4"/>
<circle cx="280.591" cy="394.54" r="11.6" transform="rotate(-127.672 280.591 394.54)" fill="#2A94F4"/>
<circle cx="308.948" cy="431.267" r="11.6" transform="rotate(-127.672 308.948 431.267)" fill="#2A94F4"/>
<circle cx="337.305" cy="467.994" r="11.6" transform="rotate(-127.672 337.305 467.994)" fill="#2A94F4"/>
<circle cx="346.986" cy="401.897" r="11.6" transform="rotate(-127.672 346.986 401.897)" fill="#2A94F4"/>
<circle cx="318.629" cy="365.171" r="11.6" transform="rotate(-127.672 318.629 365.171)" fill="#2A94F4"/>
<circle cx="290.273" cy="328.444" r="11.6" transform="rotate(-127.672 290.273 328.444)" fill="#2A94F4"/>
<circle cx="204.514" cy="453.28" r="11.6" transform="rotate(-127.672 204.514 453.28)" fill="#2A94F4"/>
<circle cx="328.497" cy="299.501" r="11.6" transform="rotate(-127.672 328.497 299.501)" fill="#2A94F4"/>
<circle cx="356.854" cy="336.228" r="11.6" transform="rotate(-127.672 356.854 336.228)" fill="#2A94F4"/>
<circle cx="148.432" cy="380.731" r="11.6" transform="rotate(-127.672 148.432 380.731)" fill="#2A94F4"/>
<circle cx="120.075" cy="344.004" r="11.6" transform="rotate(-127.672 120.075 344.004)" fill="#2A94F4"/>
<circle cx="63.3613" cy="270.551" r="11.6" transform="rotate(-127.672 63.3613 270.551)" fill="#2A94F4"/>
<circle cx="186.471" cy="351.361" r="11.6" transform="rotate(-127.672 186.471 351.361)" fill="#2A94F4"/>
<circle cx="158.114" cy="314.635" r="11.6" transform="rotate(-127.672 158.114 314.635)" fill="#2A94F4"/>
<circle cx="129.757" cy="277.908" r="11.6" transform="rotate(-127.672 129.757 277.908)" fill="#2A94F4"/>
<circle cx="101.4" cy="241.181" r="11.6" transform="rotate(-127.672 101.4 241.181)" fill="#2A94F4"/>
<circle cx="139.438" cy="211.811" r="11.6" transform="rotate(-127.672 139.438 211.811)" fill="#2A94F4"/>
<circle cx="167.795" cy="248.538" r="11.6" transform="rotate(-127.672 167.795 248.538)" fill="#2A94F4"/>
<circle cx="196.152" cy="285.265" r="11.6" transform="rotate(-127.672 196.152 285.265)" fill="#2A94F4"/>
<circle cx="224.509" cy="321.992" r="11.6" transform="rotate(-127.672 224.509 321.992)" fill="#2A94F4"/>
<circle cx="262.548" cy="292.622" r="11.6" transform="rotate(-127.672 262.548 292.622)" fill="#2A94F4"/>
<circle cx="234.19" cy="255.895" r="11.6" transform="rotate(-127.672 234.19 255.895)" fill="#2A94F4"/>
<circle cx="205.833" cy="219.168" r="11.6" transform="rotate(-127.672 205.833 219.168)" fill="#2A94F4"/>
<circle cx="177.476" cy="182.442" r="11.6" transform="rotate(-127.672 177.476 182.442)" fill="#2A94F4"/>
<circle cx="91.7184" cy="307.278" r="11.6" transform="rotate(-127.672 91.7184 307.278)" fill="#2A94F4"/>
<circle cx="300.772" cy="263.679" r="11.6" transform="rotate(-127.672 300.772 263.679)" fill="#2A94F4"/>
<circle cx="272.416" cy="226.952" r="11.6" transform="rotate(-127.672 272.416 226.952)" fill="#2A94F4"/>
<circle cx="215.702" cy="153.499" r="11.6" transform="rotate(-127.672 215.702 153.499)" fill="#2A94F4"/>
<circle cx="338.811" cy="234.309" r="11.6" transform="rotate(-127.672 338.811 234.309)" fill="#2A94F4"/>
<circle cx="310.454" cy="197.583" r="11.6" transform="rotate(-127.672 310.454 197.583)" fill="#2A94F4"/>
<circle cx="282.097" cy="160.856" r="11.6" transform="rotate(-127.672 282.097 160.856)" fill="#2A94F4"/>
<circle cx="253.74" cy="124.129" r="11.6" transform="rotate(-127.672 253.74 124.129)" fill="#2A94F4"/>
<circle cx="291.779" cy="94.7596" r="11.6" transform="rotate(-127.672 291.779 94.7596)" fill="#2A94F4"/>
<circle cx="320.136" cy="131.486" r="11.6" transform="rotate(-127.672 320.136 131.486)" fill="#2A94F4"/>
<circle cx="348.492" cy="168.213" r="11.6" transform="rotate(-127.672 348.492 168.213)" fill="#2A94F4"/>
<circle cx="358.174" cy="102.117" r="11.6" transform="rotate(-127.672 358.174 102.117)" fill="#2A94F4"/>
<circle cx="329.817" cy="65.3897" r="11.6" transform="rotate(-127.672 329.817 65.3897)" fill="#2A94F4"/>
<circle cx="244.059" cy="190.226" r="11.6" transform="rotate(-127.672 244.059 190.226)" fill="#2A94F4"/>
</svg>
