<svg width="194" height="349" viewBox="0 0 194 349" fill="none" xmlns="http://www.w3.org/2000/svg">
<circle cx="5.69761" cy="38.4677" r="7.77311" transform="rotate(27.5899 5.69761 38.4677)" fill="#2A94F4"/>
<circle cx="60.8111" cy="67.268" r="7.77311" transform="rotate(27.5899 60.8111 67.268)" fill="#2A94F4"/>
<circle cx="-9.21688" cy="67.0088" r="7.77311" transform="rotate(27.5899 -9.21688 67.0088)" fill="#2A94F4"/>
<circle cx="18.3399" cy="81.4089" r="7.77311" transform="rotate(27.5899 18.3399 81.4089)" fill="#2A94F4"/>
<circle cx="45.8967" cy="95.8088" r="7.77311" transform="rotate(27.5899 45.8967 95.8088)" fill="#2A94F4"/>
<circle cx="30.9823" cy="124.35" r="7.77311" transform="rotate(27.5899 30.9823 124.35)" fill="#2A94F4"/>
<circle cx="3.42551" cy="109.95" r="7.77311" transform="rotate(27.5899 3.42551 109.95)" fill="#2A94F4"/>
<circle cx="16.0678" cy="152.891" r="7.77311" transform="rotate(27.5899 16.0678 152.891)" fill="#2A94F4"/>
<circle cx="33.2544" cy="52.8679" r="7.77311" transform="rotate(27.5899 33.2544 52.8679)" fill="#2A94F4"/>
<circle cx="0.920326" cy="181.224" r="7.77311" transform="rotate(27.5899 0.920326 181.224)" fill="#2A94F4"/>
<circle cx="87.7295" cy="81.2946" r="7.77311" transform="rotate(27.5899 87.7295 81.2946)" fill="#2A94F4"/>
<circle cx="115.286" cy="95.6948" r="7.77311" transform="rotate(27.5899 115.286 95.6948)" fill="#2A94F4"/>
<circle cx="170.4" cy="124.495" r="7.77311" transform="rotate(27.5899 170.4 124.495)" fill="#2A94F4"/>
<circle cx="72.8152" cy="109.836" r="7.77311" transform="rotate(27.5899 72.8152 109.836)" fill="#2A94F4"/>
<circle cx="100.372" cy="124.236" r="7.77311" transform="rotate(27.5899 100.372 124.236)" fill="#2A94F4"/>
<circle cx="127.929" cy="138.636" r="7.77311" transform="rotate(27.5899 127.929 138.636)" fill="#2A94F4"/>
<circle cx="155.485" cy="153.036" r="7.77311" transform="rotate(27.5899 155.485 153.036)" fill="#2A94F4"/>
<circle cx="140.571" cy="181.577" r="7.77311" transform="rotate(27.5899 140.571 181.577)" fill="#2A94F4"/>
<circle cx="113.014" cy="167.177" r="7.77311" transform="rotate(27.5899 113.014 167.177)" fill="#2A94F4"/>
<circle cx="85.4575" cy="152.777" r="7.77311" transform="rotate(27.5899 85.4575 152.777)" fill="#2A94F4"/>
<circle cx="57.9007" cy="138.376" r="7.77311" transform="rotate(27.5899 57.9007 138.376)" fill="#2A94F4"/>
<circle cx="42.9863" cy="166.917" r="7.77311" transform="rotate(27.5899 42.9863 166.917)" fill="#2A94F4"/>
<circle cx="70.5431" cy="181.318" r="7.77311" transform="rotate(27.5899 70.5431 181.318)" fill="#2A94F4"/>
<circle cx="98.0999" cy="195.718" r="7.77311" transform="rotate(27.5899 98.0999 195.718)" fill="#2A94F4"/>
<circle cx="125.657" cy="210.118" r="7.77311" transform="rotate(27.5899 125.657 210.118)" fill="#2A94F4"/>
<circle cx="142.843" cy="110.095" r="7.77311" transform="rotate(27.5899 142.843 110.095)" fill="#2A94F4"/>
<circle cx="27.8387" cy="195.251" r="7.77311" transform="rotate(27.5899 27.8387 195.251)" fill="#2A94F4"/>
<circle cx="55.3954" cy="209.651" r="7.77311" transform="rotate(27.5899 55.3954 209.651)" fill="#2A94F4"/>
<circle cx="110.509" cy="238.451" r="7.77311" transform="rotate(27.5899 110.509 238.451)" fill="#2A94F4"/>
<circle cx="12.9243" cy="223.792" r="7.77311" transform="rotate(27.5899 12.9243 223.792)" fill="#2A94F4"/>
<circle cx="40.481" cy="238.192" r="7.77311" transform="rotate(27.5899 40.481 238.192)" fill="#2A94F4"/>
<circle cx="68.0378" cy="252.592" r="7.77311" transform="rotate(27.5899 68.0378 252.592)" fill="#2A94F4"/>
<circle cx="95.5946" cy="266.992" r="7.77311" transform="rotate(27.5899 95.5946 266.992)" fill="#2A94F4"/>
<circle cx="80.6802" cy="295.533" r="7.77311" transform="rotate(27.5899 80.6802 295.533)" fill="#2A94F4"/>
<circle cx="53.1233" cy="281.133" r="7.77311" transform="rotate(27.5899 53.1233 281.133)" fill="#2A94F4"/>
<circle cx="25.5666" cy="266.733" r="7.77311" transform="rotate(27.5899 25.5666 266.733)" fill="#2A94F4"/>
<circle cx="-1.99014" cy="252.332" r="7.77311" transform="rotate(27.5899 -1.99014 252.332)" fill="#2A94F4"/>
<circle cx="10.6522" cy="295.274" r="7.77311" transform="rotate(27.5899 10.6522 295.274)" fill="#2A94F4"/>
<circle cx="38.209" cy="309.674" r="7.77311" transform="rotate(27.5899 38.209 309.674)" fill="#2A94F4"/>
<circle cx="65.7657" cy="324.074" r="7.77311" transform="rotate(27.5899 65.7657 324.074)" fill="#2A94F4"/>
<circle cx="82.9522" cy="224.051" r="7.77311" transform="rotate(27.5899 82.9522 224.051)" fill="#2A94F4"/>
</svg>
